<?xml version="1.0" standalone="no"?>
<!DOCTYPE svg PUBLIC "-//W3C//DTD SVG 20010904//EN"
 "http://www.w3.org/TR/2001/REC-SVG-20010904/DTD/svg10.dtd">
<svg version="1.0" xmlns="http://www.w3.org/2000/svg"
 width="1280.000000pt" height="1280.000000pt" viewBox="0 0 1280.000000 1280.000000"
 preserveAspectRatio="xMidYMid meet">
<metadata>
Created by potrace 1.11, written by Peter Selinger 2001-2013
</metadata>
<g transform="translate(0.000000,1280.000000) scale(0.100000,-0.100000)"
fill="#000000" stroke="none">
<path d="M5468 12795 c-3 -3 -27 -7 -54 -9 -27 -2 -56 -6 -64 -9 -25 -9 -115
-31 -120 -30 -3 0 -26 -7 -51 -18 -26 -10 -50 -15 -53 -12 -3 4 -6 1 -6 -5 0
-7 -7 -12 -15 -12 -17 0 -56 -20 -66 -33 -3 -5 -9 -8 -13 -7 -11 2 -66 -24
-66 -32 0 -5 -5 -8 -11 -8 -11 0 -117 -72 -169 -115 -30 -25 -126 -121 -162
-163 -65 -75 -200 -292 -181 -292 3 0 1 -6 -5 -12 -12 -15 -52 -114 -58 -143
-2 -11 -10 -46 -18 -78 -24 -98 -46 -286 -36 -317 1 -3 3 -36 5 -75 2 -38 6
-86 10 -105 8 -46 35 -161 42 -180 3 -8 8 -24 10 -34 2 -11 7 -24 12 -30 5 -6
14 -28 21 -50 14 -43 75 -162 96 -187 8 -8 14 -19 14 -23 0 -13 112 -147 172
-207 118 -117 321 -250 418 -273 3 -1 14 -7 26 -13 11 -7 32 -15 45 -18 13 -3
56 -14 96 -24 84 -23 136 -32 213 -36 30 -2 60 -4 65 -5 6 -1 12 -1 15 0 16 6
60 4 60 -3 0 -4 8 -3 18 2 11 6 24 6 35 0 9 -6 17 -6 17 -2 0 4 11 8 25 8 14
0 25 -4 25 -8 0 -4 8 -4 18 1 9 5 26 6 37 2 11 -4 30 -4 42 1 13 5 25 4 28 -2
4 -5 11 -6 18 -2 16 10 57 10 57 0 0 -4 8 -3 18 2 11 6 24 6 35 0 9 -6 17 -6
17 -2 0 4 11 8 25 8 14 0 25 -4 25 -8 0 -4 8 -4 18 1 9 5 26 6 37 2 11 -4 30
-4 42 1 13 5 25 4 28 -2 4 -5 11 -6 18 -2 16 10 57 10 57 0 0 -4 8 -3 18 2 11
6 24 6 35 0 9 -6 17 -6 17 -2 0 4 11 8 25 8 14 0 25 -4 25 -8 0 -4 8 -4 18 1
9 5 26 6 37 2 11 -4 30 -4 42 1 13 5 25 4 28 -2 4 -5 11 -6 18 -2 16 10 57 10
57 0 0 -4 8 -3 18 2 11 6 24 6 35 0 9 -6 17 -6 17 -2 0 4 11 8 25 8 14 0 25
-4 25 -8 0 -4 8 -4 18 1 9 5 26 6 37 2 11 -4 30 -4 42 1 13 5 25 4 28 -2 4 -5
11 -6 18 -2 16 10 57 10 57 0 0 -4 8 -3 18 2 11 6 24 6 35 0 9 -6 17 -6 17 -2
0 4 11 8 25 8 14 0 25 -4 25 -8 0 -4 8 -4 18 1 9 5 26 6 37 2 11 -4 30 -4 42
1 13 5 25 4 28 -2 4 -5 11 -6 18 -2 16 10 57 10 57 0 0 -4 8 -4 17 2 11 6 24
6 35 0 10 -5 18 -6 18 -2 0 4 11 8 25 8 14 0 25 -4 25 -8 0 -4 8 -4 18 1 9 5
26 6 37 2 11 -4 30 -4 42 1 13 5 25 4 28 -2 4 -5 11 -6 18 -2 16 10 57 10 57
0 0 -4 8 -3 18 2 11 6 24 6 35 0 9 -6 17 -6 17 -2 0 10 93 8 109 -2 6 -3 11
-2 11 4 0 6 11 7 28 2 15 -4 41 -4 57 -1 17 4 38 3 48 -2 9 -5 17 -5 17 -1 0
4 11 8 25 8 14 0 25 -3 25 -7 0 -4 11 -3 25 2 15 6 26 6 30 -1 4 -6 13 -6 23
0 9 5 23 6 32 1 9 -5 22 -5 30 0 8 5 22 4 32 -1 10 -5 18 -6 18 -2 0 4 11 8
25 8 14 0 25 -3 25 -7 0 -4 11 -3 25 2 15 6 26 6 30 0 4 -6 13 -7 24 -1 10 6
23 6 31 1 8 -5 21 -5 30 0 9 5 23 4 33 -1 9 -6 17 -6 17 -2 0 4 11 8 25 8 14
0 25 -3 25 -7 0 -4 11 -3 25 2 15 6 26 6 30 0 4 -6 13 -7 24 -1 10 6 23 6 31
1 8 -5 21 -5 30 0 9 5 23 4 33 -1 9 -6 17 -6 17 -2 0 4 11 8 25 8 14 0 25 -3
25 -7 0 -4 11 -3 25 2 15 6 26 6 30 0 4 -6 13 -7 24 -1 10 6 23 6 31 1 8 -5
21 -5 30 0 9 5 23 4 33 -1 9 -6 17 -6 17 -2 0 4 11 8 25 8 14 0 25 -3 25 -7 0
-4 11 -3 25 2 15 6 26 6 30 0 4 -6 13 -7 24 -1 10 6 23 6 31 1 8 -5 21 -5 30
0 9 5 23 4 33 -1 9 -6 17 -6 17 -2 0 4 11 8 25 8 14 0 25 -3 25 -7 0 -4 11 -3
25 2 15 6 26 6 30 0 4 -6 13 -7 24 -1 9 5 23 6 31 1 7 -4 24 -4 36 0 14 6 26
5 29 0 4 -6 13 -7 23 -1 11 6 24 6 35 0 11 -7 17 -7 17 0 0 6 11 6 29 1 16 -4
31 -6 34 -4 2 3 35 7 73 9 71 5 111 10 154 20 14 3 37 7 52 10 14 2 34 8 45
13 10 6 20 10 23 10 7 -1 52 12 75 22 11 4 38 15 60 25 61 25 174 83 185 95 3
3 34 26 70 52 102 72 280 255 280 287 0 6 4 11 9 11 5 0 16 12 24 28 8 15 34
63 58 107 25 44 45 83 47 88 1 4 8 22 15 40 20 48 67 217 72 262 10 78 13 321
5 365 -4 25 -11 61 -14 80 -3 19 -7 42 -9 50 -2 8 -7 29 -11 45 -30 124 -116
303 -203 423 -71 98 -198 222 -294 287 -24 16 -46 33 -49 36 -24 27 -266 133
-355 155 -16 4 -34 8 -40 10 -117 32 -140 32 -2216 33 -1125 1 -2048 -1 -2051
-4z"/>
<path d="M3325 10241 c-2 -2 -32 -5 -67 -6 -35 -2 -76 -6 -93 -9 -16 -4 -46
-9 -65 -12 -19 -3 -51 -10 -70 -17 -19 -6 -39 -11 -45 -11 -19 -2 -157 -59
-222 -92 -60 -32 -143 -85 -170 -109 -6 -5 -26 -21 -45 -35 -29 -23 -157 -149
-183 -182 -70 -87 -185 -284 -185 -315 0 -7 -5 -13 -12 -13 -6 0 -9 -3 -6 -6
4 -3 -7 -44 -23 -91 -16 -48 -27 -89 -24 -91 2 -3 0 -12 -5 -21 -23 -44 -34
-332 -17 -446 4 -27 9 -63 12 -80 13 -89 81 -271 137 -368 15 -26 28 -50 28
-53 0 -3 5 -10 10 -17 6 -7 32 -42 59 -78 154 -207 389 -374 633 -449 75 -23
149 -40 201 -46 20 -2 56 -6 80 -10 91 -11 235 -3 357 21 14 3 36 7 49 10 14
2 54 15 90 27 36 12 68 23 71 23 3 0 15 6 28 13 12 7 22 10 22 7 0 -3 11 2 25
11 14 9 25 13 25 10 0 -4 6 -2 13 4 6 6 44 29 82 52 127 75 233 166 338 289
26 31 47 61 47 67 0 5 7 12 15 16 8 3 15 10 15 15 0 6 15 34 33 63 18 29 38
64 44 78 81 173 121 325 128 485 2 44 5 82 6 85 1 3 0 10 -1 15 -1 6 -4 42 -5
80 -3 70 -8 102 -26 185 -64 291 -238 561 -478 743 -34 26 -64 47 -68 47 -3 0
-14 6 -22 14 -9 8 -52 32 -97 55 -100 50 -134 64 -176 74 -7 1 -17 5 -23 9
-32 19 -210 50 -297 52 -32 0 -58 3 -58 6 0 6 -60 7 -65 1z"/>
<path d="M5620 7682 c0 -4 -33 -7 -73 -6 -81 0 -154 -9 -242 -32 -33 -9 -70
-17 -81 -20 -12 -2 -37 -11 -56 -19 -20 -8 -38 -11 -42 -8 -3 4 -6 1 -6 -5 0
-7 -6 -12 -14 -12 -21 0 -232 -116 -262 -145 -6 -5 -26 -21 -45 -35 -52 -39
-169 -159 -219 -225 -25 -33 -48 -61 -52 -63 -5 -2 -8 -12 -8 -23 0 -10 -4
-19 -8 -19 -20 0 -112 -210 -146 -330 -26 -95 -50 -247 -46 -295 2 -24 2 -62
0 -90 -1 -20 2 -49 15 -144 39 -297 198 -581 441 -791 80 -70 292 -197 339
-204 7 -1 19 -7 26 -13 8 -6 19 -12 24 -12 6 -1 35 -8 65 -17 67 -20 187 -43
248 -48 26 -2 52 -5 57 -6 6 -1 15 -1 20 0 6 1 33 1 60 0 28 0 57 0 65 0 40 0
101 0 108 -1 4 -1 9 -1 12 1 14 5 80 4 80 -1 0 -4 17 -3 38 1 21 3 47 3 58 0
10 -4 23 -5 29 -2 8 5 77 6 100 2 6 -1 12 -2 15 0 14 5 80 4 80 -1 0 -4 17 -3
38 1 21 3 47 3 58 0 10 -4 23 -5 29 -2 8 5 77 6 100 2 6 -1 12 -2 15 0 14 5
80 4 80 -1 0 -4 17 -3 38 1 21 3 47 3 58 0 10 -4 23 -5 29 -2 8 5 77 6 100 2
6 -1 12 -2 15 0 14 5 80 4 80 -1 0 -4 17 -3 38 1 21 3 47 3 58 0 10 -4 23 -5
29 -2 8 5 77 6 100 2 6 -1 12 -2 15 0 14 5 80 4 80 -1 0 -4 17 -3 38 1 21 3
47 3 58 0 10 -4 23 -5 29 -2 8 5 77 6 100 2 6 -1 12 -2 15 0 14 5 80 4 80 -1
0 -4 17 -3 38 1 21 3 47 3 58 0 10 -4 23 -5 28 -2 5 3 39 5 75 4 89 -2 138 -2
187 0 22 1 44 -1 50 -4 5 -3 18 -2 29 2 11 4 33 4 50 0 16 -3 44 -3 60 0 17 3
42 3 58 -1 15 -4 27 -5 27 -1 0 8 62 8 76 0 5 -3 18 -2 29 2 11 4 32 4 48 -1
15 -4 27 -5 27 -1 0 8 62 8 76 0 5 -3 18 -2 29 2 11 4 33 4 50 0 16 -3 44 -3
60 0 17 3 42 3 58 -1 15 -4 27 -5 27 -1 0 8 62 8 76 0 5 -3 18 -2 29 2 11 4
32 4 48 -1 15 -4 27 -5 27 -1 0 8 62 8 76 0 5 -3 18 -2 29 2 11 4 33 4 50 0
16 -3 44 -3 60 0 17 3 42 3 58 -1 15 -4 27 -5 27 -1 0 8 62 8 76 0 5 -3 18 -2
29 2 11 4 32 4 48 -1 15 -4 27 -5 27 -1 0 8 68 8 76 -1 3 -3 18 -2 32 2 15 4
39 4 55 0 15 -4 27 -4 27 -1 0 4 24 7 53 8 51 1 119 8 167 19 14 2 34 7 46 9
41 8 154 45 201 66 81 35 96 43 148 75 28 17 58 34 68 38 9 3 17 11 17 17 0 5
5 10 11 10 35 0 299 264 299 299 0 6 4 11 9 11 5 0 16 12 24 28 8 15 36 65 61
112 26 47 47 86 46 88 0 1 6 17 13 35 20 48 67 217 72 262 10 78 13 321 5 365
-4 25 -11 61 -14 80 -3 19 -7 42 -9 50 -2 8 -7 29 -11 45 -36 148 -148 364
-253 487 -65 77 -172 175 -244 223 -24 16 -46 33 -49 36 -24 27 -266 133 -355
155 -16 4 -34 8 -40 10 -10 3 -45 10 -105 20 -19 3 -72 8 -118 10 -45 1 -86 6
-91 9 -5 3 -12 1 -15 -4 -4 -6 -18 -6 -36 -1 -17 5 -30 5 -30 0 0 -5 -13 -5
-30 0 -17 5 -30 5 -30 0 0 -5 -13 -5 -30 0 -17 5 -30 5 -30 0 0 -5 -13 -5 -30
0 -17 5 -30 5 -30 0 0 -5 -13 -5 -30 0 -17 5 -30 5 -30 0 0 -5 -13 -5 -30 0
-17 5 -30 5 -30 0 0 -5 -13 -5 -30 0 -17 5 -30 5 -30 0 0 -5 -13 -5 -30 0 -17
5 -30 5 -30 0 0 -5 -13 -5 -30 0 -17 5 -30 5 -30 0 0 -5 -13 -5 -30 0 -17 5
-30 5 -30 0 0 -5 -13 -5 -30 0 -17 5 -30 5 -30 0 0 -5 -13 -5 -30 0 -17 5 -30
5 -30 0 0 -5 -13 -5 -30 0 -17 5 -30 5 -30 0 0 -5 -13 -5 -30 0 -17 5 -30 5
-30 0 0 -5 -13 -5 -30 0 -17 5 -30 5 -30 0 0 -5 -13 -5 -30 0 -17 5 -30 5 -30
0 0 -5 -13 -5 -30 0 -17 5 -30 5 -30 0 0 -5 -13 -5 -30 0 -17 5 -30 5 -30 0 0
-5 -13 -5 -30 0 -17 5 -30 5 -30 0 0 -5 -13 -5 -30 0 -17 5 -30 5 -30 0 0 -5
-13 -5 -30 0 -17 5 -30 5 -30 0 0 -5 -13 -5 -30 0 -17 5 -30 5 -30 0 0 -5 -13
-5 -30 0 -17 5 -30 5 -30 0 0 -5 -13 -5 -30 0 -17 5 -30 5 -30 0 0 -5 -13 -5
-30 0 -17 5 -30 5 -30 0 0 -5 -13 -5 -30 0 -17 5 -30 5 -30 0 0 -5 -13 -5 -30
0 -17 5 -30 5 -30 0 0 -5 -13 -5 -30 0 -17 5 -30 5 -30 0 0 -5 -13 -5 -30 0
-17 5 -30 5 -30 0 0 -5 -13 -5 -30 0 -17 5 -30 5 -30 0 0 -5 -13 -5 -30 0 -17
5 -30 5 -30 0 0 -5 -13 -5 -30 0 -17 5 -30 5 -30 0 0 -5 -13 -5 -30 0 -17 5
-30 5 -30 0 0 -5 -13 -5 -30 0 -17 5 -30 5 -30 0 0 -5 -13 -5 -30 0 -17 5 -30
5 -30 0 0 -5 -13 -5 -30 0 -17 5 -30 5 -30 0 0 -5 -13 -5 -30 0 -17 5 -30 5
-30 0 0 -5 -13 -5 -30 0 -17 5 -30 5 -30 0 0 -5 -13 -5 -30 0 -17 5 -30 5 -30
0 0 -5 -13 -5 -30 0 -17 5 -30 5 -30 0 0 -5 -13 -5 -30 0 -17 5 -30 5 -30 0 0
-5 -13 -5 -30 0 -17 5 -30 5 -30 0 0 -5 -13 -5 -30 0 -17 5 -30 5 -30 0 0 -5
-13 -5 -30 0 -17 5 -30 5 -30 0 0 -5 -13 -5 -30 0 -17 5 -30 5 -30 0 0 -5 -13
-5 -30 0 -17 5 -30 5 -30 0 0 -5 -13 -5 -30 0 -17 5 -30 5 -30 0 0 -5 -13 -5
-30 0 -17 5 -30 5 -30 0 0 -5 -13 -5 -30 0 -17 5 -30 5 -30 0 0 -5 -13 -5 -30
0 -17 5 -30 5 -30 0 0 -5 -13 -5 -30 0 -17 5 -30 5 -30 0 0 -5 -13 -5 -30 0
-17 5 -30 5 -30 0 0 -5 -13 -5 -30 0 -17 5 -30 5 -30 0 0 -5 -13 -5 -30 0 -17
5 -30 5 -30 0 0 -5 -13 -5 -30 0 -17 5 -30 5 -30 0 0 -5 -13 -5 -30 0 -17 5
-30 5 -30 0 0 -5 -13 -5 -30 0 -17 5 -30 5 -30 0 0 -5 -13 -5 -30 0 -17 5 -30
5 -30 0 0 -5 -13 -5 -30 0 -17 5 -30 5 -30 0 0 -5 -13 -5 -30 0 -17 5 -30 5
-30 0 0 -5 -13 -5 -30 0 -17 5 -30 5 -30 0 0 -5 -13 -5 -30 0 -17 5 -30 5 -30
0 0 -5 -13 -5 -30 0 -16 5 -30 6 -30 2z"/>
<path d="M3286 2563 c-4 -4 -24 -8 -46 -9 -52 -2 -166 -24 -212 -40 -21 -7
-38 -11 -38 -9 0 3 -22 -4 -49 -15 -27 -10 -52 -16 -55 -13 -3 4 -6 1 -6 -5 0
-7 -6 -12 -14 -12 -16 0 -140 -62 -144 -72 -2 -5 -8 -8 -14 -8 -11 0 -123 -77
-173 -120 -29 -24 -150 -146 -170 -172 -67 -83 -185 -284 -185 -315 0 -7 -5
-13 -12 -13 -6 0 -9 -3 -6 -6 4 -3 -7 -44 -23 -91 -16 -48 -27 -89 -24 -91 2
-3 0 -12 -5 -21 -23 -44 -34 -332 -17 -446 4 -27 9 -61 11 -75 4 -29 8 -45 43
-155 27 -87 101 -241 139 -292 13 -17 24 -36 24 -41 0 -6 3 -12 8 -14 4 -1 25
-25 47 -53 122 -152 302 -290 475 -364 89 -38 92 -39 165 -60 169 -49 187 -50
1185 -47 514 1 951 5 970 9 62 14 195 47 210 54 8 3 20 7 25 9 58 19 85 30 85
36 0 5 7 8 15 8 26 0 156 77 247 147 57 43 198 178 198 188 0 3 9 16 21 28 42
45 146 213 141 229 -1 5 2 8 8 8 5 0 10 5 10 10 0 6 9 29 19 53 22 48 63 172
67 202 2 11 5 31 9 45 19 88 26 337 12 440 -12 85 -52 227 -83 298 -33 75 -40
89 -82 162 -72 124 -149 215 -278 330 -74 67 -276 190 -310 190 -8 0 -14 5
-14 10 0 6 -3 9 -7 8 -5 -2 -21 2 -38 9 -73 28 -70 27 -115 37 -14 3 -43 10
-65 15 -70 17 -108 23 -177 26 -36 1 -71 6 -77 9 -6 4 -11 3 -11 -3 0 -6 -6
-8 -13 -5 -23 8 -98 10 -103 2 -3 -4 -16 -3 -29 2 -16 6 -25 6 -25 0 0 -6 -9
-6 -25 0 -15 6 -27 6 -30 0 -3 -6 -15 -6 -30 0 -17 6 -25 6 -25 -1 0 -6 -5 -7
-11 -3 -14 8 -297 10 -305 1 -3 -3 -17 -2 -30 3 -15 6 -24 6 -24 0 0 -6 -9 -6
-25 0 -15 6 -27 6 -30 0 -3 -6 -15 -6 -30 0 -17 6 -25 6 -25 -1 0 -6 -5 -7
-11 -3 -14 8 -297 10 -305 1 -3 -3 -17 -2 -30 3 -15 6 -24 6 -24 0 0 -6 -9 -6
-25 0 -15 6 -27 6 -30 0 -3 -6 -15 -6 -30 0 -16 6 -25 6 -25 0 0 -6 -9 -6 -22
-1 -13 5 -33 5 -45 0 -14 -5 -23 -5 -23 1 0 6 -9 6 -25 0 -15 -6 -27 -6 -30 0
-3 6 -15 6 -30 0 -16 -6 -25 -6 -25 0 0 6 -9 6 -25 0 -14 -5 -25 -6 -25 -2 0
8 -74 6 -97 -2 -7 -3 -13 -1 -13 4 0 6 -9 6 -23 1 -13 -5 -30 -5 -39 0 -8 5
-18 5 -22 2z"/>
</g>
</svg>
